<svg width="236.3" height="150" viewBox="0 0 236.3 75.5" xmlns="http://www.w3.org/2000/svg"><g id="svgGroup" stroke-linecap="round" fill-rule="evenodd" font-size="9pt" stroke="#000" stroke-width="0.25mm" fill="white" style="stroke:#000;stroke-width:0.25mm;fill:white"><path d="M 19.8 62.8 L 22 62.4 A 1.297 1.297 0 0 1 22.413 62.461 Q 22.989 62.654 23 63.469 A 2.37 2.37 0 0 1 23 63.5 A 14.538 14.538 0 0 1 22.769 66.163 Q 22.474 67.749 21.8 69.038 A 8.85 8.85 0 0 1 21.6 69.4 A 9.789 9.789 0 0 1 20.268 71.204 A 7.282 7.282 0 0 1 18.1 72.8 A 21.857 21.857 0 0 1 16.073 73.697 Q 15.045 74.086 14.127 74.287 A 8.575 8.575 0 0 1 12.3 74.5 A 9.692 9.692 0 0 1 9.409 74.093 A 7.328 7.328 0 0 1 5.4 71.05 A 11.392 11.392 0 0 1 4.044 68.119 Q 3.161 65.297 3.104 61.218 A 40.708 40.708 0 0 1 3.1 60.65 A 33.957 33.957 0 0 1 3.509 55.643 Q 4.291 50.429 6.569 43.583 A 118.74 118.74 0 0 1 6.9 42.6 L 1.1 42.6 Q 0.227 42.6 0.047 41.908 A 1.621 1.621 0 0 1 0 41.5 A 2.274 2.274 0 0 1 0.106 40.866 Q 0.394 39.892 1.463 38.299 A 26.263 26.263 0 0 1 1.7 37.95 A 8.882 8.882 0 0 1 2.59 36.85 Q 3.098 36.323 3.622 36.002 A 3.175 3.175 0 0 1 5.3 35.5 L 9.8 35.5 A 129.475 129.475 0 0 1 18.579 19.086 A 104.109 104.109 0 0 1 26.5 8.2 Q 29 5.2 32.65 2.6 Q 36.3 0 38.3 0 A 3.486 3.486 0 0 1 39.71 0.275 Q 40.507 0.623 41.059 1.413 A 4.443 4.443 0 0 1 41.3 1.8 A 11.601 11.601 0 0 1 42.307 4.159 Q 44.556 10.969 47.4 32.5 Q 48.6 43.9 51.55 56.05 A 126.361 126.361 0 0 0 52.641 60.25 Q 54.407 66.567 56.003 69.026 A 4.939 4.939 0 0 0 57 70.2 Q 57.6 70.6 57.6 71.2 A 1.339 1.339 0 0 1 57.206 72.096 Q 56.305 73.096 53.35 74 A 49.123 49.123 0 0 1 51.35 74.569 Q 49.224 75.122 47.741 75.257 A 9.874 9.874 0 0 1 46.85 75.3 Q 44.767 75.3 43.584 74.829 A 3.953 3.953 0 0 1 43.4 74.75 A 6.561 6.561 0 0 1 42.856 74.472 Q 42.125 74.05 41.9 73.6 A 15.966 15.966 0 0 1 41.113 71.377 Q 39.706 66.485 38.3 55 L 37.7 50.3 Q 37.3 45.6 36.9 43.2 L 36.2 42.7 L 15.3 42.6 A 53.271 53.271 0 0 0 14.569 46.243 Q 14.276 48.044 14.166 49.648 A 27.127 27.127 0 0 0 14.1 51.5 Q 14.1 55.3 14.35 57.05 A 6.758 6.758 0 0 0 14.789 58.629 Q 15.077 59.34 15.533 60.088 A 13.559 13.559 0 0 0 16 60.8 A 4.837 4.837 0 0 0 17.331 62.114 Q 18.394 62.8 19.8 62.8 Z M 231.4 55.6 L 231.5 56.9 Q 232 68.6 235.8 72.9 Q 236.253 73.535 236.296 73.841 A 0.435 0.435 0 0 1 236.3 73.9 A 0.789 0.789 0 0 1 235.864 74.597 Q 235.195 75 233.5 75 A 31.255 31.255 0 0 1 230.007 74.821 Q 226.387 74.412 224.39 73.071 A 5.605 5.605 0 0 1 222.8 71.5 A 2.795 2.795 0 0 1 222.333 70.606 Q 221.777 69.01 221.643 65.34 A 69.967 69.967 0 0 1 221.6 62.8 L 221.6 60.3 A 59.233 59.233 0 0 0 221.456 56.007 Q 221.025 50.1 219.3 47.4 A 4.781 4.781 0 0 0 218.464 46.477 A 3.212 3.212 0 0 0 216.35 45.7 Q 214.6 45.7 212.7 48.75 Q 210.95 51.56 210.812 53.564 A 4.905 4.905 0 0 0 210.8 53.9 Q 210.8 62.3 211.2 65.6 Q 211.6 68.9 211.6 69 Q 211.6 71.456 208.767 72.98 A 11.377 11.377 0 0 1 207.65 73.5 A 23.484 23.484 0 0 1 204.046 74.649 A 17.332 17.332 0 0 1 200.2 75.1 Q 198.9 75.1 198.9 73.5 L 198.9 73.1 Q 201.3 60.8 201.3 34.3 A 315.901 315.901 0 0 0 201.244 28.155 Q 201.197 25.753 201.111 23.614 A 152.684 152.684 0 0 0 200.9 19.6 L 200.7 17.6 A 16.478 16.478 0 0 0 200.382 15.304 Q 200.122 14.098 199.68 13.086 A 9.795 9.795 0 0 0 199.55 12.8 Q 198.6 10.8 197.7 10.2 L 196.9 9.7 Q 196.219 9.311 196.201 8.827 A 0.709 0.709 0 0 1 196.2 8.8 Q 196.2 7.2 201 5.2 A 32.924 32.924 0 0 1 204.147 4.062 Q 205.731 3.584 207.143 3.371 A 14.498 14.498 0 0 1 209.3 3.2 A 3.529 3.529 0 0 1 209.908 3.287 Q 210.221 3.363 210.445 3.498 A 1.114 1.114 0 0 1 211 4.4 Q 211.5 8.4 211.5 20.85 Q 211.5 33.3 210.9 40.7 A 5.497 5.497 0 0 0 210.912 41.077 Q 210.951 41.643 211.12 41.82 A 0.241 0.241 0 0 0 211.3 41.9 Q 211.639 41.9 212.303 41.073 A 10.447 10.447 0 0 0 212.55 40.75 A 26.323 26.323 0 0 1 213.056 40.091 Q 213.845 39.093 215.218 37.487 A 192.795 192.795 0 0 1 215.55 37.1 A 45.52 45.52 0 0 1 217.331 35.157 Q 218.186 34.273 219.191 33.309 A 99.638 99.638 0 0 1 221.35 31.3 A 25.224 25.224 0 0 1 222.984 29.935 Q 224.651 28.667 225.966 28.23 A 4.09 4.09 0 0 1 227.25 28 A 9.625 9.625 0 0 1 230.994 28.776 A 11.529 11.529 0 0 1 231.7 29.1 A 10.438 10.438 0 0 1 232.503 29.543 Q 233.9 30.404 233.9 31.2 L 232.8 31.9 A 24.514 24.514 0 0 0 228.466 34.049 Q 226.414 35.311 224.238 37.081 A 60.414 60.414 0 0 0 220.3 40.6 A 1.62 1.62 0 0 0 220.072 40.881 Q 219.93 41.107 219.905 41.347 A 0.998 0.998 0 0 0 219.9 41.45 A 0.317 0.317 0 0 0 220.023 41.679 Q 220.377 42.004 221.75 42.3 Q 223.6 42.7 225.8 44.5 A 14.794 14.794 0 0 1 227.673 46.315 A 11.181 11.181 0 0 1 229.1 48.4 A 28.127 28.127 0 0 1 230.319 51.101 Q 231.269 53.566 231.4 55.6 Z M 148.6 19.3 L 148.5 29 A 1.331 1.331 0 0 0 148.515 29.212 Q 148.575 29.583 148.871 29.6 A 0.505 0.505 0 0 0 148.9 29.6 A 1.159 1.159 0 0 0 149.375 29.495 Q 149.538 29.422 149.7 29.3 A 7.887 7.887 0 0 1 151.707 28.35 Q 153.69 27.706 156.617 27.615 A 31.797 31.797 0 0 1 157.6 27.6 A 20.729 20.729 0 0 1 162.276 28.091 Q 165.276 28.786 167.386 30.467 A 11.325 11.325 0 0 1 170.2 33.8 A 9.014 9.014 0 0 1 171.066 36.008 Q 171.337 37.068 171.439 38.323 A 19.527 19.527 0 0 1 171.5 39.9 Q 171.5 42.81 171.236 47.419 A 302.457 302.457 0 0 1 171.05 50.4 Q 170.636 56.57 170.603 59.433 A 40.902 40.902 0 0 0 170.6 59.9 Q 170.6 69.7 173.4 72.9 A 2.254 2.254 0 0 1 173.658 73.205 Q 173.785 73.387 173.845 73.569 A 1.048 1.048 0 0 1 173.9 73.9 A 0.567 0.567 0 0 1 173.572 74.377 Q 172.774 74.862 170.04 74.898 A 34.141 34.141 0 0 1 169.6 74.9 Q 159.739 74.9 158.261 67.096 A 16.113 16.113 0 0 1 158 64.1 Q 158 59.9 160 52.3 Q 161.539 46.454 161.894 42.974 A 18.648 18.648 0 0 0 162 41.1 A 12.227 12.227 0 0 0 161.821 38.939 Q 161.609 37.758 161.144 36.822 A 5.954 5.954 0 0 0 160.3 35.55 A 5.565 5.565 0 0 0 156.85 33.694 A 8.055 8.055 0 0 0 155.6 33.6 Q 152.6 33.6 150.85 34.9 A 8.604 8.604 0 0 0 149.89 35.721 Q 149.432 36.179 149.135 36.649 A 3.659 3.659 0 0 0 148.7 37.6 L 148.4 38.9 A 36.937 36.937 0 0 0 148.366 39.905 Q 148.312 42.214 148.302 48.229 A 1733.485 1733.485 0 0 0 148.3 51 A 327.044 327.044 0 0 0 148.324 55.121 Q 148.394 60.632 148.667 63.231 A 18.083 18.083 0 0 0 148.8 64.25 A 249.343 249.343 0 0 1 148.917 64.971 Q 149.3 67.35 149.3 67.7 A 4.465 4.465 0 0 1 148.31 70.458 Q 147.335 71.734 145.4 72.85 A 17.947 17.947 0 0 1 141.826 74.447 A 13.684 13.684 0 0 1 137.7 75.1 A 1.743 1.743 0 0 1 137.112 75.01 Q 136.343 74.734 136.302 73.626 A 3.444 3.444 0 0 1 136.3 73.5 L 136.5 71.6 Q 138.7 54.8 138.7 35.2 Q 138.7 27.6 138.1 19.8 L 138 17.6 A 16.478 16.478 0 0 0 137.682 15.304 Q 137.422 14.098 136.98 13.086 A 9.795 9.795 0 0 0 136.85 12.8 Q 135.9 10.8 135.1 10.2 L 134.2 9.7 Q 133.519 9.311 133.501 8.827 A 0.709 0.709 0 0 1 133.5 8.8 Q 133.5 7.642 136.717 6.039 A 32.205 32.205 0 0 1 138.2 5.35 Q 141.912 3.731 144.283 3.391 A 8.253 8.253 0 0 1 145.45 3.3 A 9.028 9.028 0 0 1 146.324 3.339 Q 147.946 3.498 148.178 4.306 A 0.962 0.962 0 0 1 148.2 4.4 Q 148.506 8.305 148.578 14.965 A 403.366 403.366 0 0 1 148.6 19.3 Z M 131.7 59.3 Q 131.7 63.6 130.05 66.8 A 18.074 18.074 0 0 1 128.806 68.881 Q 128.081 69.917 127.283 70.682 A 8.904 8.904 0 0 1 126.3 71.5 Q 124.2 73 121.3 73.9 A 28.704 28.704 0 0 1 118.109 74.721 Q 116.512 75.029 115.062 75.087 A 16.607 16.607 0 0 1 114.4 75.1 A 27.495 27.495 0 0 1 109.834 74.742 Q 106.288 74.144 103.6 72.55 A 8.336 8.336 0 0 1 99.478 66.55 A 12.438 12.438 0 0 1 99.3 64.4 A 9.92 9.92 0 0 1 99.575 62.005 A 7.217 7.217 0 0 1 101.1 59 A 9.797 9.797 0 0 1 103.735 56.895 A 8.471 8.471 0 0 1 107.8 55.9 Q 109 55.9 109 57 Q 109 57.088 108.657 58.206 A 129.338 129.338 0 0 1 108.55 58.55 Q 108.1 60 108.1 62.2 A 5.136 5.136 0 0 0 109.393 65.612 A 6.994 6.994 0 0 0 109.85 66.1 Q 111.6 67.8 114.1 67.8 A 11.974 11.974 0 0 0 115.684 67.702 Q 116.486 67.595 117.15 67.37 A 5.481 5.481 0 0 0 118.1 66.95 Q 119.6 66.1 120.2 64.8 A 9.473 9.473 0 0 0 120.799 63.317 Q 121.07 62.426 121.097 61.589 A 5.754 5.754 0 0 0 121.1 61.4 Q 121.1 58.5 118.2 56.4 Q 115.3 54.3 111.8 53.1 A 16.826 16.826 0 0 1 106.321 49.936 A 19.954 19.954 0 0 1 105.4 49.1 A 9.287 9.287 0 0 1 102.503 42.362 A 11.979 11.979 0 0 1 102.5 42.1 A 18.053 18.053 0 0 1 102.978 37.81 A 11.519 11.519 0 0 1 107.05 31.3 A 15.636 15.636 0 0 1 112.606 28.545 Q 114.868 27.912 117.559 27.753 A 31.346 31.346 0 0 1 119.4 27.7 A 27.243 27.243 0 0 1 124.013 28.11 A 33.259 33.259 0 0 1 126.55 28.65 A 10.383 10.383 0 0 1 127.965 29.109 Q 130.3 30.075 130.3 31.85 A 11.805 11.805 0 0 1 129.977 34.653 A 10.315 10.315 0 0 1 129.55 36 A 6.223 6.223 0 0 1 129.206 36.739 Q 128.56 37.9 127.7 37.9 A 1.227 1.227 0 0 1 127.402 37.867 A 0.709 0.709 0 0 1 126.9 37.45 A 2.967 2.967 0 0 0 126.727 37.123 Q 126.528 36.794 126.2 36.4 A 2.41 2.41 0 0 0 125.869 36.084 Q 125.233 35.567 123.8 34.85 A 12.158 12.158 0 0 0 122.666 34.349 Q 122.091 34.132 121.576 34.02 A 4.832 4.832 0 0 0 120.55 33.9 Q 119.2 33.9 118.75 33.95 Q 118.3 34 117.2 34.25 A 7.835 7.835 0 0 0 115.73 34.736 A 6.889 6.889 0 0 0 115.2 35 A 5.012 5.012 0 0 0 113.894 36.033 Q 112.947 37.105 112.902 38.647 A 5.317 5.317 0 0 0 112.9 38.8 A 5.795 5.795 0 0 0 112.959 39.654 Q 113.102 40.617 113.6 41.15 Q 114.136 41.725 114.496 42.094 A 23.739 23.739 0 0 0 114.7 42.3 A 2.93 2.93 0 0 0 114.973 42.537 Q 115.282 42.777 115.768 43.062 A 14.338 14.338 0 0 0 116.1 43.25 Q 116.923 43.703 117.34 43.919 A 13.097 13.097 0 0 0 117.5 44 A 18.031 18.031 0 0 0 117.723 44.109 Q 118.093 44.288 118.821 44.627 A 300.073 300.073 0 0 0 119.3 44.85 A 287.998 287.998 0 0 1 119.865 45.113 Q 120.571 45.443 120.92 45.612 A 16.275 16.275 0 0 1 121.1 45.7 Q 131.7 50.7 131.7 59.3 Z M 73.5 15.8 L 72.9 52.5 A 424.742 424.742 0 0 0 72.939 58.465 Q 73.102 70.031 73.954 72.952 A 5.388 5.388 0 0 0 74 73.1 A 2.889 2.889 0 0 1 74.243 73.775 A 2.45 2.45 0 0 1 74.3 74.3 A 0.883 0.883 0 0 1 73.803 75.088 Q 73.099 75.5 71.4 75.5 A 13.803 13.803 0 0 1 68.539 75.182 Q 67.262 74.911 65.882 74.41 A 25.264 25.264 0 0 1 64.95 74.05 Q 61.965 72.831 61.49 71.011 A 2.802 2.802 0 0 1 61.4 70.3 A 160.71 160.71 0 0 0 62.455 60.632 Q 63.337 49.761 63.396 35.017 A 532.656 532.656 0 0 0 63.4 32.9 L 63 17.6 A 16.478 16.478 0 0 0 62.682 15.304 Q 62.422 14.098 61.98 13.086 A 9.795 9.795 0 0 0 61.85 12.8 Q 60.9 10.8 60 10.2 L 59.2 9.7 Q 58.519 9.311 58.501 8.827 A 0.709 0.709 0 0 1 58.5 8.8 Q 58.5 7.603 61.68 5.931 A 29.985 29.985 0 0 1 62.85 5.35 Q 67.2 3.3 71.3 3.3 A 3.486 3.486 0 0 1 71.928 3.352 Q 72.253 3.412 72.49 3.541 A 1.164 1.164 0 0 1 73.1 4.4 Q 73.5 7 73.5 15.8 Z M 82.6 70 L 83.7 46.7 A 56.956 56.956 0 0 0 83.589 42.991 Q 83.24 37.674 81.8 35.4 A 5.315 5.315 0 0 0 81.237 34.621 Q 80.85 34.182 80.4 33.9 Q 79.844 33.715 79.803 33.186 A 1.117 1.117 0 0 1 79.8 33.1 A 1.633 1.633 0 0 1 80.25 32.04 Q 81.145 30.993 83.826 29.981 A 29.032 29.032 0 0 1 84.9 29.6 Q 90 27.9 92.35 27.9 A 6.96 6.96 0 0 1 93.152 27.943 Q 93.99 28.04 94.403 28.364 A 1.005 1.005 0 0 1 94.8 29.1 Q 94.8 30.972 94.319 39.278 A 1383.124 1383.124 0 0 1 94.25 40.45 Q 93.7 49.8 93.7 60.1 A 141.596 141.596 0 0 0 93.742 63.689 Q 93.925 70.869 94.9 72.9 A 2.227 2.227 0 0 1 95.115 73.369 A 1.741 1.741 0 0 1 95.2 73.9 Q 95.2 75.067 92.142 75.187 A 18.959 18.959 0 0 1 91.4 75.2 Q 87.6 75.2 83.6 73.2 Q 82.629 72.715 82.601 70.153 A 14.074 14.074 0 0 1 82.6 70 Z M 17.3 35.5 L 17.4 35.5 Q 31.3 35.5 33.35 35.55 Q 35.064 35.592 35.485 35.459 A 0.289 0.289 0 0 0 35.6 35.4 A 1.204 1.204 0 0 0 35.848 35.036 A 1.478 1.478 0 0 0 35.9 34.9 A 640.445 640.445 0 0 0 35.142 29.566 Q 34.172 22.965 33.482 19.49 A 55.462 55.462 0 0 0 33.2 18.15 Q 32.26 13.966 31.319 13.716 A 0.463 0.463 0 0 0 31.2 13.7 Q 30.2 13.7 28.7 15.7 A 79.797 79.797 0 0 0 21.989 25.446 A 59.95 59.95 0 0 0 17.3 35.5 Z M 90.6 19.5 L 88.2 19.4 Q 85.5 19.4 84.7 20.7 A 0.819 0.819 0 0 1 84.565 20.859 A 0.533 0.533 0 0 1 84.2 21 A 0.813 0.813 0 0 1 83.508 20.555 Q 83.04 19.815 82.932 17.844 A 23.792 23.792 0 0 1 82.9 16.55 A 22.865 22.865 0 0 1 82.965 14.759 Q 83.18 12.028 84.117 11.03 A 2.066 2.066 0 0 1 84.25 10.9 A 3.789 3.789 0 0 1 85.414 10.217 Q 86.515 9.792 88.199 9.717 A 16.833 16.833 0 0 1 88.95 9.7 A 15.28 15.28 0 0 1 90.469 9.77 Q 92.595 9.983 93.5 10.85 A 3.338 3.338 0 0 1 94.277 12.041 Q 94.674 13.031 94.698 14.502 A 11.768 11.768 0 0 1 94.7 14.7 A 12.79 12.79 0 0 1 94.644 15.947 Q 94.475 17.663 93.8 18.45 A 2.556 2.556 0 0 1 92.838 19.13 Q 92.021 19.477 90.77 19.499 A 9.739 9.739 0 0 1 90.6 19.5 Z M 185.4 73.1 L 183 73.2 A 8.982 8.982 0 0 1 181.931 73.142 Q 180.8 73.006 180.174 72.553 A 1.902 1.902 0 0 1 179.8 72.2 Q 179 71.2 178.95 68.45 A 11.091 11.091 0 0 1 178.948 68.249 Q 178.948 65.656 180.2 64.5 A 3.704 3.704 0 0 1 181.367 63.793 Q 182.444 63.368 184.071 63.31 A 14.832 14.832 0 0 1 184.6 63.3 A 13.29 13.29 0 0 1 186.213 63.391 Q 187.954 63.605 188.975 64.32 A 3.66 3.66 0 0 1 189.15 64.45 Q 190.6 65.6 190.6 68.2 A 50.86 50.86 0 0 1 190.568 70.073 Q 190.397 74.7 189.3 74.7 L 188.8 74.4 Q 188.172 73.234 185.935 73.114 A 9.988 9.988 0 0 0 185.4 73.1 Z" vector-effect="non-scaling-stroke"/></g></svg>